<svg width="500" height="373" viewBox="0 0 500 373" fill="none" xmlns="http://www.w3.org/2000/svg">
<g opacity="0.45" clip-path="url(#clip0_10_70)">
<path d="M500 327.45H0V327.7H500V327.45Z" fill="#EBEBEB"/>
<path d="M449.9 343.54H416.78V343.79H449.9V343.54Z" fill="#EBEBEB"/>
<path d="M331.22 346.26H322.53V346.51H331.22V346.26Z" fill="#EBEBEB"/>
<path d="M415.78 334.26H396.59V334.51H415.78V334.26Z" fill="#EBEBEB"/>
<path d="M95.65 335.94H52.46V336.19H95.65V335.94Z" fill="#EBEBEB"/>
<path d="M110.89 335.94H104.56V336.19H110.89V335.94Z" fill="#EBEBEB"/>
<path d="M225.15 340.16H131.47V340.41H225.15V340.16Z" fill="#EBEBEB"/>
<path d="M237.01 282.85H43.91C40.76 282.85 38.2 280.29 38.2 277.14V5.71C38.2 2.56 40.76 0 43.91 0H237.01C240.16 0 242.72 2.56 242.72 5.71V277.14C242.72 280.29 240.16 282.85 237.01 282.85ZM43.91 0.25C40.9 0.25 38.45 2.7 38.45 5.71V277.14C38.45 280.15 40.9 282.6 43.91 282.6H237.01C240.02 282.6 242.47 280.15 242.47 277.14V5.71C242.47 2.7 240.02 0.25 237.01 0.25H43.91Z" fill="#EBEBEB"/>
<path d="M453.31 282.85H260.21C257.06 282.85 254.5 280.29 254.5 277.14V5.71C254.5 2.56 257.06 0 260.21 0H453.31C456.46 0 459.02 2.56 459.02 5.71V277.14C459.02 280.29 456.46 282.85 453.31 282.85ZM260.21 0.25C257.2 0.25 254.75 2.7 254.75 5.71V277.14C254.75 280.15 257.2 282.6 260.21 282.6H453.31C456.32 282.6 458.77 280.15 458.77 277.14V5.71C458.77 2.7 456.32 0.25 453.31 0.25H260.21Z" fill="#EBEBEB"/>
<path d="M66.79 327.44H202.49L202.49 40.6501H66.79L66.79 327.44Z" fill="#E6E6E6"/>
<path d="M63.78 327.44H199.48L199.48 40.6501H63.78L63.78 327.44Z" fill="#F5F5F5"/>
<path d="M194.06 321.37L194.06 46.7401L69.1901 46.7401L69.1901 321.37H194.06Z" fill="#FAFAFA"/>
<path d="M165.31 321.37L133.67 46.7401H97.9501L129.59 321.37H165.31Z" fill="white"/>
<path d="M71.48 321.37L71.48 46.7401H69.2L69.2 321.37H71.48Z" fill="#E6E6E6"/>
<path d="M66.02 78.6801L197.24 78.6801V70.5201L66.02 70.5201V78.6801Z" fill="#F5F5F5"/>
<path d="M274.23 327.44V161.04H219.44V327.44H274.23Z" fill="#F0F0F0"/>
<path d="M271.22 214.67V165.9H222.45V214.67H271.22Z" fill="#F5F5F5"/>
<path d="M271.22 267.83V219.06H222.45V267.83H271.22Z" fill="#F5F5F5"/>
<path d="M271.22 320.98V272.21H222.45V320.98H271.22Z" fill="#F5F5F5"/>
<path d="M257.63 165.26H236.04C236.04 168.05 238.3 170.32 241.1 170.32H252.58C255.37 170.32 257.64 168.06 257.64 165.26H257.63Z" fill="#E6E6E6"/>
<path d="M257.63 218.42H236.04C236.04 221.21 238.3 223.48 241.1 223.48H252.58C255.37 223.48 257.64 221.22 257.64 218.42H257.63Z" fill="#E6E6E6"/>
<path d="M257.63 271.57H236.04C236.04 274.36 238.3 276.63 241.1 276.63H252.58C255.37 276.63 257.64 274.37 257.64 271.57H257.63Z" fill="#E6E6E6"/>
<path d="M301.59 327.45V161.05H274.22V327.45H301.59Z" fill="#F5F5F5"/>
<path d="M420.49 323.36H435.68V198.08H420.49V323.36Z" fill="#F0F0F0"/>
<path d="M287.72 327.44H433.58V323.35H287.72V327.44Z" fill="#F0F0F0"/>
<path d="M420.49 198.08H285.61V323.36H420.49V198.08Z" fill="#FAFAFA"/>
<path d="M312.02 271.29H394.08C402.14 271.29 408.69 264.74 408.69 256.68C408.69 248.62 402.14 242.07 394.08 242.07H312.02C303.96 242.07 297.41 248.62 297.41 256.68C297.41 264.74 303.96 271.29 312.02 271.29ZM394.08 243.05C401.59 243.05 407.71 249.16 407.71 256.68C407.71 264.2 401.6 270.31 394.08 270.31H312.02C304.51 270.31 298.39 264.2 298.39 256.68C298.39 249.16 304.5 243.05 312.02 243.05H394.08Z" fill="#F0F0F0"/>
<path d="M312.02 307.63H394.08C402.14 307.63 408.69 301.08 408.69 293.02C408.69 284.96 402.14 278.41 394.08 278.41H312.02C303.96 278.41 297.41 284.96 297.41 293.02C297.41 301.08 303.96 307.63 312.02 307.63ZM394.08 279.39C401.59 279.39 407.71 285.5 407.71 293.02C407.71 300.54 401.6 306.65 394.08 306.65H312.02C304.51 306.65 298.39 300.54 298.39 293.02C298.39 285.5 304.5 279.39 312.02 279.39H394.08Z" fill="#F0F0F0"/>
<path d="M340.67 253.53H365.44C367.12 253.53 368.49 252.16 368.49 250.48C368.49 248.8 367.12 247.43 365.44 247.43H340.67C338.99 247.43 337.62 248.8 337.62 250.48C337.62 252.16 338.99 253.53 340.67 253.53Z" fill="#EBEBEB"/>
<path d="M312.02 234.94H394.08C402.14 234.94 408.69 228.39 408.69 220.33C408.69 212.27 402.14 205.72 394.08 205.72H312.02C303.96 205.72 297.41 212.27 297.41 220.33C297.41 228.39 303.96 234.94 312.02 234.94ZM394.08 206.7C401.59 206.7 407.71 212.81 407.71 220.33C407.71 227.85 401.6 233.96 394.08 233.96H312.02C304.51 233.96 298.39 227.85 298.39 220.33C298.39 212.81 304.5 206.7 312.02 206.7H394.08Z" fill="#F0F0F0"/>
<path d="M340.67 217.18H365.44C367.12 217.18 368.49 215.81 368.49 214.13C368.49 212.45 367.12 211.08 365.44 211.08H340.67C338.99 211.08 337.62 212.45 337.62 214.13C337.62 215.81 338.99 217.18 340.67 217.18Z" fill="#EBEBEB"/>
<path d="M340.67 289.87H365.44C367.12 289.87 368.49 288.5 368.49 286.82C368.49 285.14 367.12 283.77 365.44 283.77H340.67C338.99 283.77 337.62 285.14 337.62 286.82C337.62 288.5 338.99 289.87 340.67 289.87Z" fill="#EBEBEB"/>
<path d="M282.83 198.09L420.48 198.09V191.72L282.83 191.72V198.09Z" fill="#F0F0F0"/>
<path d="M438.66 191.71H420.49V198.08H438.66V191.71Z" fill="#E6E6E6"/>
<path d="M322.02 91.44C325.09 92.98 333.41 91.33 330.63 96.96C329.33 99.61 327.2 102.43 324.94 105.22C321.84 109.04 322.43 113.19 326.09 114.69C326.98 115.06 327.7 115.51 328.11 116.1C329.8 118.52 325.81 121.76 323.86 124.17C321.97 126.51 321.12 128.97 322.56 130.77C324.15 132.76 327.48 132.03 330.11 132.63C336.46 134.07 329.93 142.82 330.6 147.32C331.06 150.4 333.56 151.26 336.95 151.69C339.72 152.04 343.41 152.29 343.56 155.13C343.69 157.58 340.5 160.37 339.66 162.95C338.85 165.46 339.12 167.89 340.27 169.75C341.3 171.41 343 172.53 345.25 173.01C348.39 173.68 353.15 172.98 353.37 176.53C353.47 178.11 352.37 179.52 353.14 180.97C353.79 182.2 355.26 182.82 356.83 183.14C359.35 183.65 362.99 183.51 365.89 182.98C369.58 182.3 375.03 179.05 373.02 175.92C372.46 175.04 371.38 174.53 370.17 174.28C369.28 174.1 366.71 174.38 366.38 173.78C366.05 173.18 366.94 170.88 366.98 170.04C367.09 167.63 366.66 165.37 365.91 163.27C364.89 160.43 363.28 157.88 361.15 155.73C360.28 154.85 358.88 154.2 358.7 152.91C358.53 151.68 359.33 150.2 360.23 148.94C361.64 146.95 363.83 145.06 364.62 142.93C365.86 139.59 362.85 138.53 360.06 137.77C357.54 137.08 354.22 136.2 355.07 133.14C355.69 130.93 358.48 129.12 359.31 126.96C360.43 124.07 357.7 123.95 355.74 122.92C353.2 121.58 352.56 119.19 353.48 116.15C355 111.15 364.17 104.09 359.48 100.83C358.29 100 357.18 99.73 356.46 98.48C355.69 97.15 355.58 95.5 354.58 94.29C353 92.38 349.73 92.06 348.02 90.28C344.52 86.64 352.08 80.19 345.18 78.65C343.6 78.3 342.2 77.97 341.15 76.98C340.52 76.39 340.01 73.54 339.29 73.34C336.12 72.46 330.41 78.61 328.61 80.5C326.43 82.81 318.34 89.6 322 91.44H322.02Z" fill="#E0E0E0"/>
<path d="M376.39 176.25C374.51 172.77 366.28 169.29 371.74 165.25C374.31 163.35 377.69 161.77 381.18 160.32C385.96 158.33 387.66 153.72 385.24 149.91C384.65 148.98 384.26 148.07 384.21 147.21C384.02 143.69 389.26 142.84 392.28 141.58C395.2 140.36 397.27 138.37 396.96 135.63C396.62 132.6 393.29 131.29 391.29 129.04C386.46 123.62 396.91 118.71 398.72 113.69C399.96 110.25 398.22 107.82 395.46 105.27C393.21 103.19 390.08 100.64 391.47 97.64C392.67 95.04 396.98 94.18 399.1 92.06C401.16 90 402.22 87.33 402.2 84.72C402.18 82.38 401.28 80.18 399.55 78.29C397.13 75.65 392.57 73.41 394.27 69.64C395.03 67.96 396.75 67.21 396.86 65.24C396.95 63.58 395.98 62.03 394.77 60.73C392.81 58.64 389.53 56.52 386.69 55.27C383.07 53.67 376.53 53.62 376.62 58.07C376.64 59.32 377.32 60.51 378.26 61.52C378.94 62.25 381.37 63.57 381.34 64.39C381.31 65.21 379.29 67.02 378.81 67.85C377.42 70.25 376.59 72.84 376.14 75.45C375.52 78.99 375.58 82.6 376.3 86.13C376.6 87.58 377.48 89.11 376.95 90.54C376.44 91.91 374.94 92.93 373.47 93.66C371.16 94.82 368.22 95.4 366.38 97.09C363.49 99.74 365.59 102.7 367.64 105.21C369.5 107.48 371.95 110.45 369.56 113.05C367.83 114.93 364.4 115.05 362.51 116.74C359.97 119.01 362.32 120.82 363.5 123.1C365.02 126.05 364.31 128.9 361.87 131.44C357.85 135.62 345.98 137.15 348.38 143.4C348.99 144.99 349.82 145.96 349.78 147.67C349.75 149.51 348.96 151.27 349.19 153.12C349.56 156.06 352.27 158.42 352.83 161.3C353.97 167.2 343.84 169.11 349.11 174.98C350.31 176.32 351.37 177.53 351.78 179.19C352.02 180.19 350.95 183.43 351.47 184.07C353.79 186.94 362.13 184.2 364.73 183.37C367.89 182.36 378.67 180.43 376.42 176.27L376.39 176.25Z" fill="#F5F5F5"/>
<path d="M397.47 168.39C397.47 168.39 396.47 191.71 358.29 191.71C320.11 191.71 319.11 168.39 319.11 168.39H397.47Z" fill="#F0F0F0"/>
<path d="M250 372.61C357.082 372.61 443.89 367.542 443.89 361.29C443.89 355.038 357.082 349.97 250 349.97C142.917 349.97 56.11 355.038 56.11 361.29C56.11 367.542 142.917 372.61 250 372.61Z" fill="#F5F5F5"/>
<g opacity="0.2">
<path d="M360.73 352.91L297.04 235.2L233.35 352.91H360.73Z" fill="#A6A8AC"/>
<path d="M360.73 153.77L297.04 271.48L233.35 153.77H360.73Z" fill="#A6A8AC"/>
</g>
<path d="M308.71 223.26L299.39 240.49C298.38 242.35 295.7 242.35 294.7 240.49L285.38 223.26C281.7 216.46 286.62 208.21 294.35 208.21H299.74C307.47 208.21 312.39 216.47 308.71 223.26Z" fill="#A6A8AC"/>
<path d="M298.05 323.2L326.96 335.1C329.66 336.21 328.87 340.24 325.94 340.24H268.12C265.2 340.24 264.4 336.22 267.1 335.1L296.01 323.2C296.66 322.93 297.39 322.93 298.04 323.2H298.05Z" fill="#A6A8AC"/>
<path d="M297.04 300.55C299.089 300.55 300.75 298.889 300.75 296.84C300.75 294.791 299.089 293.13 297.04 293.13C294.991 293.13 293.33 294.791 293.33 296.84C293.33 298.889 294.991 300.55 297.04 300.55Z" fill="#A6A8AC"/>
<path d="M297.04 260.01C298.095 260.01 298.95 259.155 298.95 258.1C298.95 257.045 298.095 256.19 297.04 256.19C295.985 256.19 295.13 257.045 295.13 258.1C295.13 259.155 295.985 260.01 297.04 260.01Z" fill="#A6A8AC"/>
<path d="M297.04 278.74C298.238 278.74 299.21 277.768 299.21 276.57C299.21 275.372 298.238 274.4 297.04 274.4C295.842 274.4 294.87 275.372 294.87 276.57C294.87 277.768 295.842 278.74 297.04 278.74Z" fill="#A6A8AC"/>
<path d="M360.41 347.11H233.68C230.49 347.11 227.88 349.72 227.88 352.91C227.88 356.1 230.49 358.71 233.68 358.71H360.41C363.6 358.71 366.21 356.1 366.21 352.91C366.21 349.72 363.6 347.11 360.41 347.11Z" fill="#A6A8AC"/>
<path d="M360.41 147.97H233.68C230.49 147.97 227.88 150.58 227.88 153.77C227.88 156.96 230.49 159.57 233.68 159.57H360.41C363.6 159.57 366.21 156.96 366.21 153.77C366.21 150.58 363.6 147.97 360.41 147.97Z" fill="#A6A8AC"/>
<path d="M194.63 350.72L187.58 348.44L191.96 331.81L199.01 334.1L194.63 350.72Z" fill="#CBCBCB"/>
<path d="M187.47 347.5L195.39 350.07C195.68 350.16 195.83 350.43 195.76 350.72L194.11 357.11C193.94 357.77 193.13 358.19 192.47 357.96C189.73 357.02 188.46 356.43 184.98 355.3C182.84 354.6 175.77 352.78 172.81 351.82C169.92 350.88 170.88 347.96 172.22 348.1C178.23 348.74 183.61 348.45 186.11 347.53C186.56 347.36 187.04 347.35 187.47 347.49V347.5Z" fill="#263238"/>
<path opacity="0.2" d="M199.01 334.1L191.96 331.81L189.7 340.38L196.76 342.67L199.01 334.1Z" fill="black"/>
<path d="M218.28 165.77C218.28 165.77 205.63 224.32 202.66 245.37C199.41 268.42 187.2 337.64 187.2 337.64L200.29 341.26C200.29 341.26 218.43 274.13 223.72 251.72C229.47 227.4 244.76 165.78 244.76 165.78H218.27L218.28 165.77Z" fill="#CBCBCB"/>
<path opacity="0.3" d="M233.92 184.97C228.93 196.31 226.45 221.01 228.39 232.32C231.93 217.77 236.19 200.47 239.48 187.16C238.37 183.3 236.53 179.04 233.92 184.97Z" fill="black"/>
<path d="M200.62 341.52L186.6 337.65L186.87 331.94L202.66 337.4L200.62 341.52Z" fill="#263238"/>
<path d="M184.57 347.92C185.22 348.13 185.99 348.23 186.53 348.28C186.6 348.28 186.66 348.25 186.7 348.19C186.73 348.13 186.73 348.06 186.69 348C186.52 347.77 184.96 345.76 183.99 345.82C183.77 345.83 183.58 345.95 183.46 346.16C183.26 346.51 183.23 346.83 183.38 347.12C183.57 347.49 184.04 347.74 184.58 347.92H184.57ZM186.16 347.89C184.82 347.73 183.9 347.39 183.68 346.96C183.59 346.78 183.61 346.58 183.75 346.34C183.82 346.23 183.9 346.17 184.01 346.17C184.53 346.14 185.51 347.11 186.16 347.9V347.89Z" fill="#263238"/>
<path d="M186.5 348.27C186.5 348.27 186.55 348.28 186.58 348.27C186.64 348.27 186.69 348.22 186.71 348.17C186.74 348.09 187.56 346.11 187.07 345.19C186.94 344.94 186.73 344.79 186.45 344.73C186.11 344.66 185.84 344.77 185.69 345.03C185.28 345.75 185.85 347.56 186.42 348.21C186.44 348.23 186.47 348.25 186.5 348.26V348.27ZM186.46 345.1C186.6 345.14 186.7 345.23 186.77 345.36C187.06 345.91 186.74 347.09 186.51 347.75C186.07 347.03 185.73 345.69 186 345.22C186.05 345.13 186.14 345.03 186.39 345.08C186.42 345.08 186.44 345.09 186.47 345.1H186.46Z" fill="#263238"/>
<path d="M231.74 110.18C231.36 111.07 231.04 111.75 230.69 112.52C230.34 113.26 229.97 113.98 229.6 114.7C228.85 116.14 228.08 117.56 227.27 118.97C225.63 121.77 223.86 124.51 221.87 127.15C219.89 129.8 217.71 132.36 215.22 134.75C212.74 137.15 209.9 139.38 206.54 141.16L206.29 141.29C205.89 141.5 205.44 141.66 205.02 141.75C202.61 142.26 200.17 142.07 198.15 141.47C196.11 140.88 194.41 140 192.91 139.04C189.92 137.1 187.69 134.8 185.67 132.48C183.68 130.12 181.96 127.68 180.41 125.16C178.86 122.62 177.5 120.11 176.27 117.32C175.55 115.68 176.3 113.77 177.94 113.05C179.3 112.46 180.84 112.87 181.74 113.96L181.84 114.08C183.49 116.09 185.28 118.21 187.08 120.15C188.89 122.11 190.75 123.98 192.66 125.63C194.55 127.29 196.56 128.72 198.4 129.63C199.31 130.08 200.18 130.36 200.87 130.44C201.56 130.52 201.99 130.46 202.31 130.32L200.78 130.92C202.71 129.67 204.6 127.96 206.39 126.02C208.17 124.07 209.85 121.89 211.44 119.6C213.02 117.3 214.52 114.89 215.93 112.41C216.64 111.18 217.33 109.92 217.99 108.66L218.96 106.76C219.27 106.15 219.62 105.46 219.85 104.96L219.91 104.83C221.44 101.59 225.32 100.2 228.56 101.73C231.73 103.23 233.12 106.97 231.75 110.17L231.74 110.18Z" fill="#263238"/>
<path opacity="0.3" d="M215.39 123.76C218.53 115.42 225.2 115.28 228.09 117.49C227.88 117.88 227.66 118.27 227.44 118.66C225.88 121.37 224.17 124.01 222.29 126.57C220.41 129.12 218.35 131.61 216.02 133.95C215.3 134.66 214.56 135.36 213.79 136.04C213.63 132.11 213.93 127.66 215.39 123.76Z" fill="black"/>
<path d="M175.98 117.84L169.48 118.07L171.1 111.13C171.1 111.13 174.97 111.29 177.73 112.09C179.4 112.58 180.09 114.59 179.13 116.05C178.43 117.13 177.25 117.79 175.97 117.84H175.98Z" fill="#CBCBCB"/>
<path d="M179.64 111.96C179.1 111.53 178.4 111.13 177.5 110.85C176.95 113.69 173.54 118.49 173.54 118.49H176.25C176.96 118.49 177.63 118.18 178.09 117.63L179.99 115.36C180.85 114.33 180.71 112.8 179.66 111.96H179.64Z" fill="#6E6F71"/>
<path d="M164.52 114.88L166.35 109.98L171.1 111.13L169.48 118.07L164.52 114.88Z" fill="#CBCBCB"/>
<path d="M246.25 353.97H238.84L238.58 336.8H245.99L246.25 353.97Z" fill="#CBCBCB"/>
<path d="M238.45 353.11H246.78C247.08 353.11 247.31 353.32 247.33 353.62L247.73 360.21C247.77 360.89 247.13 361.54 246.43 361.53C243.53 361.48 242.15 361.31 238.48 361.31C236.23 361.31 228.69 361.54 225.58 361.54C222.47 361.54 222.56 358.46 223.88 358.18C229.79 356.93 235.07 355.21 237.17 353.56C237.55 353.26 238 353.1 238.45 353.1V353.11Z" fill="#263238"/>
<path opacity="0.2" d="M246 336.8H238.58L238.71 345.65H246.13L246 336.8Z" fill="black"/>
<path d="M232.74 165.77C232.74 165.77 229.91 230.18 231.11 251.41C232.43 274.65 235.19 343.52 235.19 343.52H248.77C248.77 343.52 252.19 276.53 253.01 253.52C253.9 228.54 257.92 165.78 257.92 165.78H232.73L232.74 165.77Z" fill="#CBCBCB"/>
<path d="M249.32 343.52H234.65L233.53 338.06L249.72 338.87L249.32 343.52Z" fill="#263238"/>
<path d="M235.82 354.4C236.5 354.4 237.26 354.26 237.8 354.13C237.87 354.11 237.92 354.06 237.93 353.99C237.94 353.92 237.91 353.85 237.86 353.82C237.62 353.66 235.52 352.22 234.62 352.58C234.41 352.66 234.27 352.83 234.22 353.07C234.13 353.46 234.2 353.78 234.44 354.01C234.73 354.3 235.26 354.4 235.83 354.4H235.82ZM237.32 353.89C235.99 354.15 235.02 354.11 234.67 353.77C234.53 353.63 234.49 353.43 234.55 353.15C234.58 353.02 234.64 352.95 234.74 352.91C235.23 352.72 236.46 353.34 237.32 353.89Z" fill="#263238"/>
<path d="M237.76 354.14C237.76 354.14 237.81 354.14 237.84 354.12C237.89 354.09 237.93 354.04 237.93 353.98C237.93 353.89 238.1 351.76 237.36 351.04C237.16 350.85 236.91 350.77 236.63 350.8C236.29 350.84 236.07 351.03 236 351.32C235.83 352.13 236.93 353.68 237.67 354.12C237.7 354.14 237.73 354.14 237.76 354.14ZM236.74 351.14C236.88 351.14 237.01 351.19 237.11 351.29C237.56 351.72 237.62 352.94 237.6 353.65C236.96 353.11 236.22 351.93 236.33 351.4C236.35 351.3 236.41 351.18 236.66 351.15C236.69 351.15 236.71 351.15 236.74 351.15V351.14Z" fill="#263238"/>
<path d="M261.64 105.99C262.11 103.37 260.31 100.88 257.68 100.5H257.59C255.2 100.14 252.2 99.78 249.26 99.64C244.2 99.4 236.87 99.24 232.41 99.64C229.82 99.88 227.29 100.31 225.27 100.7C225.24 100.7 225.22 100.71 225.19 100.72C222.62 101.24 220.54 103.14 219.8 105.66C217.38 113.81 214.5 130.45 218.27 165.78H257.92C258.2 162.24 257.41 150.72 257.99 136.05C258.43 124.87 260.42 112.83 261.64 106V105.99Z" fill="#263238"/>
<path opacity="0.3" d="M261.26 108.17C260.44 112.91 259.42 119.35 258.72 126.14C258.72 126.14 255.1 119.04 254.44 112.97C253.78 106.9 258.95 106.47 261.25 108.17H261.26Z" fill="black"/>
<g opacity="0.2">
<path d="M234.67 109.1C234.53 109.1 234.4 109.03 234.34 108.9C234.24 108.72 234.32 108.49 234.5 108.39L246.86 101.98C247.05 101.89 247.27 101.96 247.37 102.14C247.47 102.32 247.39 102.55 247.21 102.65L234.85 109.06C234.79 109.09 234.74 109.1 234.68 109.1H234.67Z" fill="white"/>
<path d="M240.33 109.69C240.23 109.69 240.14 109.65 240.07 109.58L233.3 102.84C233.15 102.69 233.15 102.46 233.3 102.31C233.45 102.16 233.68 102.16 233.83 102.31L240.6 109.05C240.75 109.2 240.75 109.43 240.6 109.58C240.53 109.65 240.43 109.69 240.33 109.69Z" fill="white"/>
<path d="M249.26 99.63C244.2 99.39 236.87 99.23 232.42 99.63C232.33 99.63 232.23 99.65 232.14 99.66C231.98 100.32 231.83 101.55 232.57 102.73C233.51 104.23 235.48 105.07 238.44 105.23C238.82 105.25 239.19 105.26 239.55 105.26C247.6 105.26 250.64 100.4 250.77 100.19L251.05 99.74C250.45 99.7 249.86 99.66 249.26 99.63Z" fill="white"/>
</g>
<path d="M233.22 99.57C238.12 98.41 238.98 95.38 238.65 92.05C238.58 91.24 238.44 90.4 238.26 89.57L244.4 84.47L248.91 80.73C247.66 86.16 246.25 96.05 249.92 99.67C249.92 99.67 246.88 104.68 238.5 104.22C231.42 103.84 233.22 99.57 233.22 99.57Z" fill="#C9C9C9"/>
<path opacity="0.2" d="M238.26 89.57C238.44 90.4 238.58 91.24 238.65 92.05C240.94 91.59 244 89.15 244.32 86.81C244.44 85.93 244.46 85.08 244.4 84.47L238.26 89.57Z" fill="black"/>
<path d="M234.97 63.55C231.64 65.51 232.17 70.55 231.26 74.13C233.38 74.34 236.72 70.57 236.72 70.57L238.71 64.84L234.96 63.55H234.97Z" fill="#263238"/>
<path d="M252.71 73.61C250.58 80.67 249.69 84.9 245.19 87.85C238.42 92.28 230.3 87.23 230.27 79.75C230.24 73.02 233.73 62.6 241.45 61.16C249.06 59.74 254.84 66.56 252.71 73.62V73.61Z" fill="#C9C9C9"/>
<path d="M246.06 79.6C251.06 73.8 244.81 70.94 249.92 66.91C244.17 67.18 234.7 66.77 233.01 62.83C231.32 58.89 236.52 53.55 240.85 53.05C245.89 52.47 244.77 58.66 244.77 58.66C244.77 58.66 263.91 57.47 257.83 65.6C262.43 65.32 261.17 72.77 253.16 79.04C251.15 79.76 246.06 79.59 246.06 79.59V79.6Z" fill="#263238"/>
<path d="M256.68 65.76C256.68 65.76 260.62 64.59 260.48 61.47C261.91 62.45 262.05 65.43 256.68 65.76Z" fill="#263238"/>
<path d="M253.88 80.98C252.61 82.54 250.84 83.48 249.33 83.75C247.06 84.16 246.53 82.06 247.66 80.02C248.68 78.18 251.09 75.74 253.13 76.26C255.14 76.77 255.33 79.2 253.88 80.99V80.98Z" fill="#C9C9C9"/>
<path d="M241.32 73.42C241.18 74 240.76 74.41 240.38 74.34C240 74.26 239.8 73.73 239.93 73.15C240.07 72.57 240.49 72.16 240.87 72.23C241.25 72.31 241.45 72.84 241.32 73.42Z" fill="#263238"/>
<path d="M234.69 72.1C234.55 72.68 234.13 73.09 233.75 73.02C233.37 72.94 233.17 72.41 233.3 71.83C233.44 71.25 233.86 70.84 234.24 70.91C234.62 70.99 234.82 71.52 234.69 72.1Z" fill="#263238"/>
<path d="M236.73 72.81C236.73 72.81 234.6 75.9 232.75 77.23C233.56 78.4 235.43 78.31 235.43 78.31L236.73 72.81Z" fill="#747373"/>
<path d="M237.45 80.36C239.8 80.55 241.23 79.18 241.29 79.12C241.36 79.05 241.36 78.94 241.29 78.87C241.22 78.8 241.11 78.8 241.04 78.87C241.02 78.89 239.4 80.44 236.82 79.92C236.72 79.9 236.63 79.96 236.61 80.06C236.59 80.15 236.65 80.25 236.75 80.27C236.99 80.32 237.22 80.35 237.44 80.37L237.45 80.36Z" fill="#263238"/>
<path d="M243.88 71.81C243.94 71.81 244 71.81 244.05 71.78C244.23 71.7 244.3 71.49 244.22 71.31C243.42 69.56 241.81 69.34 241.74 69.33C241.56 69.29 241.37 69.44 241.35 69.63C241.33 69.82 241.46 70 241.65 70.02C241.72 70.02 242.95 70.22 243.58 71.59C243.64 71.71 243.75 71.78 243.87 71.79L243.88 71.81Z" fill="#263238"/>
<path d="M233.05 68.12C233.16 68.15 233.28 68.14 233.37 68.06C234.63 67.08 235.88 67.46 235.89 67.46C236.08 67.52 236.27 67.42 236.33 67.23C236.39 67.05 236.29 66.85 236.1 66.79C236.03 66.77 234.48 66.3 232.93 67.5C232.78 67.62 232.75 67.84 232.87 67.99C232.91 68.05 232.97 68.09 233.04 68.11L233.05 68.12Z" fill="#263238"/>
<path d="M262.03 103.13L262.87 104.27L263.62 105.33C264.11 106.04 264.57 106.75 265.03 107.46C265.95 108.88 266.8 110.33 267.64 111.79C269.29 114.72 270.81 117.71 272.16 120.79C272.86 122.32 273.47 123.89 274.1 125.45C274.66 127.04 275.28 128.61 275.77 130.23C276.86 133.42 277.65 136.74 278.37 140.06L278.45 140.44C278.76 141.85 278.45 143.26 277.73 144.38C276.47 146.32 274.94 148.15 273.18 149.77C271.44 151.41 269.38 152.77 267.2 153.8C265.01 154.82 262.67 155.46 260.34 155.7C259.17 155.82 258 155.84 256.85 155.76C256.27 155.72 255.69 155.65 255.11 155.56C254.82 155.51 254.53 155.45 254.23 155.39L253.22 155.15C252.97 155.09 252.82 154.84 252.88 154.59L254.26 148.79C254.26 148.79 254.52 148.73 254.68 148.69L255.23 148.58C255.6 148.5 255.98 148.41 256.36 148.31C257.11 148.11 257.84 147.85 258.53 147.56C259.92 146.97 261.2 146.23 262.32 145.33C264.58 143.56 266.26 141.21 267.59 138.48L266.95 142.8C266.09 139.97 265.19 137.16 264.08 134.4C263 131.64 261.79 128.91 260.47 126.23C259.15 123.55 257.76 120.9 256.25 118.32C255.51 117.02 254.72 115.76 253.95 114.5L252.76 112.64L252.17 111.74L251.62 110.94L251.42 110.65C249.4 107.68 250.17 103.64 253.14 101.63C256.04 99.66 259.97 100.36 262.03 103.15V103.13Z" fill="#263238"/>
<path d="M248.78 154.53L246.62 158.06L255.96 157.68C255.96 157.68 258.4 151.4 255.06 150.41L253.77 150.77C251.69 151.35 249.91 152.69 248.78 154.53Z" fill="#CBCBCB"/>
<path d="M252.62 149.6C252.05 149.98 251.45 150.53 250.92 151.31C253.46 152.69 257 157.39 257 157.39L257.82 154.81C258.03 154.13 257.94 153.4 257.55 152.8L255.96 150.31C255.24 149.18 253.73 148.85 252.62 149.6Z" fill="#787878"/>
<path d="M247.45 163.47L255.14 162.79L255.96 157.67L246.63 158.05L247.45 163.47Z" fill="#CBCBCB"/>
<path d="M153.06 41.38L152.55 40.52C154.01 39.65 155.55 38.89 157.13 38.25L157.51 39.18C155.98 39.8 154.49 40.55 153.07 41.39L153.06 41.38Z" fill="#797A7A"/>
<path d="M138.46 59L137.52 58.66C139.89 52.12 144.13 46.48 149.78 42.36L150.37 43.17C144.88 47.17 140.76 52.65 138.46 59.01V59Z" fill="#898E9A"/>
<path d="M170.2 101.22C187.199 101.22 200.98 87.4393 200.98 70.44C200.98 53.4407 187.199 39.66 170.2 39.66C153.201 39.66 139.42 53.4407 139.42 70.44C139.42 87.4393 153.201 101.22 170.2 101.22Z" fill="#919499"/>
<path opacity="0.6" d="M195.91 70.44C195.91 84.65 184.4 96.16 170.2 96.16C163.47 96.16 157.34 93.57 152.76 89.34C147.67 84.64 144.48 77.91 144.48 70.45C144.48 56.25 156 44.73 170.2 44.73C177.73 44.73 184.49 47.96 189.2 53.11C189.21 53.11 189.23 53.12 189.25 53.16C193.39 57.73 195.92 63.79 195.92 70.45L195.91 70.44Z" fill="white"/>
<path d="M195.91 70.44C195.91 84.65 184.4 96.16 170.2 96.16C163.47 96.16 157.34 93.57 152.76 89.34C148.52 84.76 145.93 78.62 145.93 71.89C145.93 57.69 157.45 46.17 171.65 46.17C178.45 46.17 184.6 48.79 189.2 53.11C189.21 53.11 189.23 53.12 189.25 53.16C193.39 57.73 195.92 63.79 195.92 70.45L195.91 70.44Z" fill="white"/>
<path d="M170.2 71.94C169.82 71.94 169.43 71.79 169.14 71.5L156.6 58.96C156.01 58.37 156.01 57.42 156.6 56.84C157.19 56.25 158.14 56.25 158.72 56.84L170.2 68.32L176.83 61.69C177.42 61.1 178.37 61.1 178.95 61.69C179.54 62.28 179.54 63.23 178.95 63.81L171.26 71.5C170.97 71.79 170.58 71.94 170.2 71.94Z" fill="#263238"/>
</g>
<defs>
<clipPath id="clip0_10_70">
<rect width="500" height="372.61" fill="white"/>
</clipPath>
</defs>
</svg>
