<svg width="66" height="64" viewBox="0 0 66 64" fill="none" xmlns="http://www.w3.org/2000/svg">
<path d="M4.71429 2.37037C4.71429 1.74171 4.96263 1.1388 5.40468 0.694265C5.84673 0.249735 6.44628 0 7.07143 0H58.9286C59.5537 0 60.1533 0.249735 60.5953 0.694265C61.0374 1.1388 61.2857 1.74171 61.2857 2.37037C61.2857 2.99903 61.0374 3.60194 60.5953 4.04647C60.1533 4.49101 59.5537 4.74074 58.9286 4.74074H51.8571C51.8571 6.05867 50.9049 7.11111 49.7121 7.11111H48.3214V14.4356C50.325 14.9807 51.81 16.8533 51.81 19.0341C51.81 20.6839 50.9614 22.144 49.6815 22.9926L51.8501 26.0741H62.4313C62.7477 26.0715 63.0524 26.1945 63.2792 26.4164C63.506 26.6383 63.6367 26.9411 63.6429 27.2593C63.6429 27.4157 63.6121 27.5706 63.5523 27.715C63.4924 27.8594 63.4048 27.9905 63.2943 28.1007C63.1839 28.2109 63.0529 28.298 62.9088 28.357C62.7647 28.416 62.6104 28.4457 62.4549 28.4444H61.2857V35.5556H62.4313C62.7477 35.553 63.0524 35.676 63.2792 35.8979C63.506 36.1197 63.6367 36.4226 63.6429 36.7407C63.6367 37.0589 63.506 37.3617 63.2792 37.5836C63.0524 37.8055 62.7477 37.9285 62.4313 37.9259H60.0317C60.0644 38.1427 60.0357 38.3644 59.949 38.5656C59.8623 38.7668 59.7211 38.9394 59.5414 39.0637C59.3293 39.2059 59.0936 39.277 58.8579 39.277C58.4807 39.277 58.1271 39.1111 57.8914 38.7793L57.2904 37.9259H36.9011L36.3 38.7793C36.0643 39.1111 35.7107 39.277 35.3336 39.277C35.0979 39.277 34.8621 39.2059 34.65 39.0637C34.4704 38.9394 34.3291 38.7668 34.2424 38.5656C34.1557 38.3644 34.1271 38.1427 34.1597 37.9259H31.8544C31.538 37.9285 31.2334 37.8055 31.0065 37.5836C30.7797 37.3617 30.6491 37.0589 30.6429 36.7407C30.6429 36.0913 31.1897 35.5556 31.8544 35.5556H33V28.4444H31.8544C31.538 28.447 31.2334 28.324 31.0065 28.1021C30.7797 27.8803 30.6491 27.5774 30.6429 27.2593C30.6429 26.6098 31.1897 26.0741 31.8544 26.0741H42.3437L44.5123 22.9926C43.859 22.5617 43.3223 21.9745 42.9504 21.2836C42.5785 20.5927 42.383 19.8197 42.3814 19.0341C42.3814 18.3704 42.9236 17.8489 43.56 17.8489C44.22 17.8489 44.7386 18.3704 44.7386 19.0341C44.7386 19.8874 45.1935 20.6412 45.8724 21.0584L46.0727 20.7739C46.1242 20.6871 46.1868 20.6074 46.2589 20.5369C46.368 20.4253 46.4983 20.337 46.6421 20.2771C46.7859 20.2173 46.9401 20.1871 47.0957 20.1884C47.4021 20.1861 47.7086 20.307 47.9325 20.5369C48.0054 20.6073 48.0688 20.687 48.1211 20.7739L48.3191 21.0584C48.9979 20.6412 49.4529 19.8874 49.4529 19.0341C49.4529 17.7304 48.4393 16.6874 47.1429 16.6637C46.7421 16.6637 46.365 16.4504 46.1529 16.1185C46.0134 15.9348 45.9388 15.7096 45.9407 15.4785C45.9407 15.3837 45.9407 15.3126 45.9643 15.2178V7.11111H44.5736C43.3809 7.11111 42.4286 6.05867 42.4286 4.74074H28.2857V54.5185H30.0536C31.68 54.5185 33 55.8459 33 57.4815V59.2593H61.3093C63.9021 59.2593 66 61.3807 66 64H0C0 61.3807 2.09786 59.2593 4.69071 59.2593H7.07143V57.4815C7.07143 55.8459 8.39143 54.5185 10.0179 54.5185H11.7857V4.74074H7.07143C6.44628 4.74074 5.84673 4.49101 5.40468 4.04647C4.96263 3.60194 4.71429 2.99903 4.71429 2.37037ZM14.1429 9.48148V14.675L24.4719 9.48148H14.1429ZM15.5996 54.5185H25.9286V49.325L15.5996 54.5185ZM24.4719 47.4074H14.1429V52.6009L24.4719 47.4074ZM15.5996 16.5926H25.9286V11.3991L15.5996 16.5926ZM24.4719 18.963H14.1429V24.1564L24.4719 18.963ZM15.5996 26.0741H25.9286V20.8806L15.5996 26.0741ZM24.4719 28.4444H14.1429V33.6379L24.4719 28.4444ZM15.5996 35.5556H25.9286V30.3621L15.5996 35.5556ZM24.4719 37.9259H14.1429V43.1194L24.4719 37.9259ZM15.5996 45.037H25.9286V39.8436L15.5996 45.037ZM46.8647 23.7701L45.243 26.0741H48.9484L47.3267 23.7701C47.1728 23.7777 47.0186 23.7777 46.8647 23.7701ZM40.6749 28.4444H35.3571V35.5556H35.6683L40.6749 28.4444ZM38.5699 35.5556H55.6215L50.6173 28.4444H43.5741L38.5699 35.5556ZM53.5189 28.4444L58.5231 35.5556H58.9286V28.4444H53.5189Z" fill="#666DA3"/>
</svg>
