<svg width="58" height="58" viewBox="0 0 58 58" fill="none" xmlns="http://www.w3.org/2000/svg">
<path d="M29 0C21.3114 0.00859684 13.9401 3.06671 8.5034 8.5034C3.06671 13.9401 0.00859684 21.3114 0 29C0.0128823 36.6873 3.07237 44.0561 8.50813 49.4919C13.9439 54.9276 21.3127 57.9871 29 58C36.6913 58 44.0675 54.9446 49.5061 49.5061C54.9446 44.0675 58 36.6913 58 29C58 21.3087 54.9446 13.9325 49.5061 8.4939C44.0675 3.05535 36.6913 0 29 0ZM46.639 45.7342C45.0103 42.4491 42.4959 39.6845 39.3796 37.7523C36.2633 35.8202 32.669 34.7974 29.0024 34.7993C25.3357 34.8013 21.7425 35.8278 18.6282 37.7633C15.5139 39.6987 13.0025 42.4659 11.3773 45.7527C7.041 41.2554 4.62478 35.2473 4.64 29C4.64 22.5393 7.20649 16.3433 11.7749 11.7749C16.3433 7.20649 22.5393 4.64 29 4.64C35.4607 4.64 41.6567 7.20649 46.2251 11.7749C50.7935 16.3433 53.36 22.5393 53.36 29C53.3745 35.2386 50.9646 41.2388 46.639 45.7342ZM29 11.6C26.9352 11.6 24.9167 12.2123 23.1998 13.3595C21.483 14.5066 20.1449 16.1371 19.3547 18.0448C18.5645 19.9524 18.3578 22.0516 18.7606 24.0767C19.1634 26.1019 20.1577 27.9621 21.6178 29.4222C23.0779 30.8823 24.9381 31.8766 26.9633 32.2794C28.9884 32.6822 31.0876 32.4755 32.9952 31.6853C34.9029 30.8951 36.5334 29.557 37.6805 27.8402C38.8277 26.1233 39.44 24.1048 39.44 22.04C39.44 20.669 39.17 19.3114 38.6453 18.0448C38.1206 16.7781 37.3516 15.6272 36.3822 14.6578C35.4127 13.6884 34.2619 12.9194 32.9952 12.3947C31.7286 11.87 30.371 11.6 29 11.6Z" fill="#2A3288" fill-opacity="0.8649"/>
</svg>
