<svg width="58" height="58" viewBox="0 0 58 58" fill="none" xmlns="http://www.w3.org/2000/svg">
<path d="M0.200018 5.59995C0.198118 4.32469 0.647609 3.08991 1.46888 2.1143C2.29015 1.13869 3.4302 0.485225 4.6871 0.269633C5.94401 0.0540398 7.23666 0.290237 8.3361 0.93639C9.43554 1.58254 10.2708 2.59695 10.694 3.79995H52.4C53.6762 3.79818 54.9117 4.24842 55.8875 5.07082C56.8633 5.89323 57.5163 7.03465 57.7308 8.29266C57.9452 9.55067 57.7071 10.844 57.0588 11.9432C56.4105 13.0424 55.3939 13.8765 54.1892 14.2976L54.2 14.6V39.8C54.2 42.6643 53.0622 45.4113 51.0368 47.4367C49.0114 49.4621 46.2644 50.6 43.4 50.6H18.2C15.5428 50.6033 12.9783 49.6236 11 47.8496V55.1C11 55.816 10.7156 56.5028 10.2092 57.0091C9.70286 57.5155 9.0161 57.7999 8.30002 57.7999H2.90002C2.18393 57.7999 1.49718 57.5155 0.99083 57.0091C0.484481 56.5028 0.200018 55.816 0.200018 55.1V5.59995ZM50.6 39.8V14.6H11V39.8C11 41.7095 11.7586 43.5409 13.1088 44.8911C14.4591 46.2414 16.2905 47 18.2 47H43.4C45.3096 47 47.1409 46.2414 48.4912 44.8911C49.8414 43.5409 50.6 41.7095 50.6 39.8ZM7.40002 11H52.4C52.8774 11 53.3352 10.8103 53.6728 10.4727C54.0104 10.1352 54.2 9.67734 54.2 9.19995C54.2 8.72256 54.0104 8.26472 53.6728 7.92716C53.3352 7.58959 52.8774 7.39995 52.4 7.39995H7.40002V5.59995C7.40002 5.12256 7.21038 4.66472 6.87281 4.32716C6.53524 3.98959 6.07741 3.79995 5.60002 3.79995C5.12263 3.79995 4.66479 3.98959 4.32723 4.32716C3.98966 4.66472 3.80002 5.12256 3.80002 5.59995V54.2H7.40002V11ZM20 28.838V38.018C20 38.4953 20.1897 38.9532 20.5272 39.2907C20.8648 39.6283 21.3226 39.818 21.8 39.818H25.4C25.8774 39.818 26.3352 39.6283 26.6728 39.2907C27.0104 38.9532 27.2 38.4953 27.2 38.018V34.418C27.2 33.9406 27.3897 33.4827 27.7272 33.1452C28.0648 32.8076 28.5226 32.618 29 32.618H32.6C33.0774 32.618 33.5352 32.8076 33.8728 33.1452C34.2104 33.4827 34.4 33.9406 34.4 34.418V38.018C34.4 38.4953 34.5897 38.9532 34.9272 39.2907C35.2648 39.6283 35.7226 39.818 36.2 39.818H39.8C40.2774 39.818 40.7352 39.6283 41.0728 39.2907C41.4104 38.9532 41.6 38.4953 41.6 38.018V28.838C41.6002 28.3291 41.4924 27.826 41.2839 27.3619C41.0754 26.8977 40.7709 26.483 40.3904 26.1452L31.9952 18.6932C31.6658 18.4006 31.2406 18.2391 30.8 18.2391C30.3595 18.2391 29.9342 18.4006 29.6048 18.6932L21.2096 26.1452C20.8291 26.483 20.5246 26.8977 20.3161 27.3619C20.1076 27.826 19.9999 28.3291 20 28.838Z" fill="#966B8C"/>
</svg>
