<svg width="53" height="55" viewBox="0 0 53 55" fill="none" xmlns="http://www.w3.org/2000/svg">
<path d="M51.9808 14.5354L27.5192 0.272973C27.2093 0.0941453 26.8578 0 26.5 0C26.1422 0 25.7907 0.0941453 25.4808 0.272973L1.01923 14.5354C0.711142 14.7132 0.454965 14.9685 0.27616 15.2759C0.0973547 15.5833 0.00214725 15.9321 0 16.2877V52.9625C0 53.5029 0.214766 54.0211 0.597051 54.4032C0.979337 54.7853 1.49783 55 2.03846 55H20.3846C20.9252 55 21.4437 54.7853 21.826 54.4032C22.2083 54.0211 22.4231 53.5029 22.4231 52.9625V38.7001H30.5769V52.9625C30.5769 53.5029 30.7917 54.0211 31.174 54.4032C31.5563 54.7853 32.0748 55 32.6154 55H50.9615C51.5022 55 52.0207 54.7853 52.4029 54.4032C52.7852 54.0211 53 53.5029 53 52.9625V16.2877C52.9979 15.9321 52.9026 15.5833 52.7238 15.2759C52.545 14.9685 52.2889 14.7132 51.9808 14.5354ZM48.9231 50.925H34.6538V36.6626C34.6538 36.1222 34.4391 35.604 34.0568 35.2219C33.6745 34.8397 33.156 34.6251 32.6154 34.6251H20.3846C19.844 34.6251 19.3255 34.8397 18.9432 35.2219C18.5609 35.604 18.3462 36.1222 18.3462 36.6626V50.925H4.07692V17.449L26.5 4.38871L48.9231 17.449V50.925Z" fill="#376FBA"/>
</svg>
