<svg width="72" height="72" viewBox="0 0 72 72" fill="none" xmlns="http://www.w3.org/2000/svg">
<path d="M7.20002 12.6C7.19812 11.3247 7.64761 10.0899 8.46888 9.1143C9.29015 8.13869 10.4302 7.48523 11.6871 7.26963C12.944 7.05404 14.2367 7.29024 15.3361 7.93639C16.4355 8.58254 17.2708 9.59695 17.694 10.8H59.4C60.6762 10.7982 61.9117 11.2484 62.8875 12.0708C63.8633 12.8932 64.5163 14.0346 64.7308 15.2927C64.9452 16.5507 64.7071 17.844 64.0588 18.9432C63.4105 20.0424 62.3939 20.8765 61.1892 21.2976L61.2 21.6V46.8C61.2 49.6643 60.0622 52.4113 58.0368 54.4367C56.0114 56.4621 53.2644 57.6 50.4 57.6H25.2C22.5428 57.6033 19.9783 56.6236 18 54.8496V62.1C18 62.816 17.7156 63.5028 17.2092 64.0091C16.7029 64.5155 16.0161 64.7999 15.3 64.7999H9.90002C9.18393 64.7999 8.49718 64.5155 7.99083 64.0091C7.48448 63.5028 7.20002 62.816 7.20002 62.1V12.6ZM57.6 46.8V21.6H18V46.8C18 48.7095 18.7586 50.5409 20.1088 51.8911C21.4591 53.2414 23.2905 54 25.2 54H50.4C52.3096 54 54.1409 53.2414 55.4912 51.8911C56.8414 50.5409 57.6 48.7095 57.6 46.8ZM14.4 18H59.4C59.8774 18 60.3352 17.8103 60.6728 17.4727C61.0104 17.1352 61.2 16.6773 61.2 16.2C61.2 15.7226 61.0104 15.2647 60.6728 14.9272C60.3352 14.5896 59.8774 14.4 59.4 14.4H14.4V12.6C14.4 12.1226 14.2104 11.6647 13.8728 11.3272C13.5352 10.9896 13.0774 10.8 12.6 10.8C12.1226 10.8 11.6648 10.9896 11.3272 11.3272C10.9897 11.6647 10.8 12.1226 10.8 12.6V61.2H14.4V18ZM27 35.838V45.018C27 45.4953 27.1897 45.9532 27.5272 46.2907C27.8648 46.6283 28.3226 46.818 28.8 46.818H32.4C32.8774 46.818 33.3352 46.6283 33.6728 46.2907C34.0104 45.9532 34.2 45.4953 34.2 45.018V41.418C34.2 40.9406 34.3897 40.4827 34.7272 40.1452C35.0648 39.8076 35.5226 39.618 36 39.618H39.6C40.0774 39.618 40.5352 39.8076 40.8728 40.1452C41.2104 40.4827 41.4 40.9406 41.4 41.418V45.018C41.4 45.4953 41.5897 45.9532 41.9272 46.2907C42.2648 46.6283 42.7226 46.818 43.2 46.818H46.8C47.2774 46.818 47.7352 46.6283 48.0728 46.2907C48.4104 45.9532 48.6 45.4953 48.6 45.018V35.838C48.6002 35.3291 48.4924 34.826 48.2839 34.3619C48.0754 33.8977 47.7709 33.483 47.3904 33.1452L38.9952 25.6932C38.6658 25.4006 38.2406 25.2391 37.8 25.2391C37.3595 25.2391 36.9342 25.4006 36.6048 25.6932L28.2096 33.1452C27.8291 33.483 27.5246 33.8977 27.3161 34.3619C27.1076 34.826 26.9999 35.3291 27 35.838Z" fill="#966B8C"/>
</svg>
